<?xml version="1.0" encoding="UTF-8"?>
<svg xmlns="http://www.w3.org/2000/svg" xmlns:xlink="http://www.w3.org/1999/xlink" width="912" height="912" viewBox="0 0 912 912">
  <defs>
    <style>
      .cls-1 {
        fill: none;
      }

      .cls-2 {
        clip-path: url(#clip-path);
      }

      .cls-3 {
        fill: #fff;
      }
    </style>
    <clipPath id="clip-path">
      <rect id="Rectángulo_2679" data-name="Rectángulo 2679" class="cls-1" width="912" height="912" transform="translate(0 -0.452)"></rect>
    </clipPath>
  </defs>
  <g id="Grupo_7485" data-name="Grupo 7485" transform="translate(-9980 4069)">
    <g id="Grupo_7484" data-name="Grupo 7484" transform="translate(9980 -4068.548)">
      <g id="Grupo_7483" data-name="Grupo 7483" class="cls-2">
        <path id="Trazado_12706" data-name="Trazado 12706" class="cls-3" d="M455.774,911.548A455.893,455.893,0,0,1,278.364,35.82,455.89,455.89,0,0,1,633.184,875.728a452.925,452.925,0,0,1-177.41,35.82m0-898.852A443.2,443.2,0,0,0,283.31,864.035,443.194,443.194,0,0,0,628.238,47.513,440.283,440.283,0,0,0,455.774,12.7"></path>
        <path id="Trazado_12707" data-name="Trazado 12707" class="cls-3" d="M913.446,445.5c-.659,8.681-1.555,38.148-2.3,46.472-1.132,12.607-3.539,29.8-5.942,42.133-4.685,24.057-10.631,47.836-18.906,71.011a479.063,479.063,0,0,1-35.669,76.867,411.305,411.305,0,0,1-52,71.713c-19.878,21.987-41.177,42.346-64.788,60.308a467.113,467.113,0,0,1-57.293,37.3,447.1,447.1,0,0,1-70.811,31.539c-17.12,5.882-34.635,10.273-52.31,14.327-21.964,5.038-44.172,8.493-66.492,9.314-31.612,1.164-63.3,1.216-94.788-4.148-24.51-4.176-48.659-9.24-72.35-16.982-21.4-6.992-42.325-15.036-62.355-25.144a490.638,490.638,0,0,1-56.082-33.429,461.667,461.667,0,0,1-63.115-52.408c-11.65-11.474-22.263-24.015-32.634-36.768a425.754,425.754,0,0,1-44.734-67.205c-17.144-31.879-31.2-65.1-40.308-100.134C12.15,537.9,6.619,504.978,6.041,471.351c-.426-24.757-.414-49.4,2.826-74.072a488.493,488.493,0,0,1,8.586-48.963,441.861,441.861,0,0,1,31.184-88.252,471.044,471.044,0,0,1,23.931-43.894c4.6-7.492,9.692-14.823,14.623-22.139,11.609-17.227,24.937-32.968,38.733-48.311a351.738,351.738,0,0,1,33.6-32.651c5.971-5.081,11.77-10.393,17.809-15.346C194.8,83.4,214.112,71.7,233.475,60.176c23.829-14.182,49.137-25.223,75.318-34.317A421.618,421.618,0,0,1,369.441,9.231C382.173,6.846,412.082-.048,427.2.059h63.473c13.258-.107,34.357,4.767,47.453,7.11a451.291,451.291,0,0,1,77.26,21.013,489,489,0,0,1,90.655,45.11c19.965,12.551,38.219,27.36,55.838,43.062A443.9,443.9,0,0,1,846.486,217.98c12.328,20.735,23.5,42.03,32.456,64.381,6.09,15.2,11.733,30.579,15.708,46.617,4.065,16.394,8.384,32.649,11.121,49.372,2.612,15.96,7.674,45.924,7.674,67.155M452.1,101.792c5.224,1.1,6.96-.571,7.029-6.286.135-11.1-1.595-22.092-1.27-33.157.1-3.526-1.811-3.371-4.238-3.392-2.35-.021-4.13.145-3.776,3.239.465,4.061.984,8.134,1.108,12.213.27,8.851.3,17.709.433,26.564-.223.675.076.9.714.82M88.491,481.156l8.743.172a42.507,42.507,0,0,0,6.706.32c2.863-.294,3.774-2.173,3.7-5.1-.084-3.531-2.433-2.613-4.3-2.685a48.656,48.656,0,0,0-7.346.029c-3.526.4-4.617-.911-4.405-4.392.138-2.277.513-3.823,2.649-5.023,3.442-1.934,6.639-4.3,10.037-6.321,3.772-2.243,2.851-6.307,1.7-8.5-1.536-2.938-3.606.787-5.412,1.515a23.141,23.141,0,0,0-6.173,3.653c-2.714,2.28-4.362,1.927-6.373-.995-3.529-5.128-9.172-5.817-14.532-4.717-5,1.025-7.787,4.866-9.225,10.1-2.075,7.555,1.465,14.753.548,22.162-.182,1.465,1.466,1.792,2.479,1.455,6.943-2.311,14.21-.208,21.2-1.673M457.323,810.542,458,787.978s14.57.973,21.136-.232c5.548-.079,9.414-3.4,12.745-7.184,5.069-5.756,7-12.573,4.862-20.118-2.306-8.129-6.766-13.934-15.779-15.836-12.5-2.638-25.054-.553-37.554-1.29-3.277-.193-2.914,2.139-2.914,4.188-.006,20.146-.865,62.516-.865,62.516Zm71.239-22.67s13.113,1.105,19.657-.143c9.926-1.408,15.733-6.686,18.12-16.467,2.638-10.809-3.025-23.8-12.421-26.074-14.5-3.5-29.321-2.2-44.046-1.11-1.132,1.928-.435,67.78-.435,67.78h18.369ZM636.5,811.888l-25.211-67.172-21.315-.476-25.24,67.618,19.178-.032,3.914-9.006,25.664.2,3.836,8.834ZM162,465.222A383.394,383.394,0,0,0,167.49,510.5a280.417,280.417,0,0,0,23.715,71.08,300.654,300.654,0,0,0,69.271,92.487c2.86,2.595,16.1,13.457,20.5,16.275l1.058.655c1.688.1,3.376.3,5.064.3q172.092.022,344.184,0c1.5,0,3.008-.144,4.512-.221.714.284.928-.235,1.162-.722,6.246-4.792,12.76-9.275,18.689-14.432A294.641,294.641,0,0,0,703.6,622a290.344,290.344,0,0,0,41.954-90.237,303.136,303.136,0,0,0,10.22-63.181,260.375,260.375,0,0,0-.682-33.755,320.76,320.76,0,0,0-7.18-48.376,290.362,290.362,0,0,0-39.481-93.423c-16.266-25.181-35.552-47.632-58.8-66.784a315.642,315.642,0,0,0-52-34.866,296.353,296.353,0,0,0-70.291-26.348,303.352,303.352,0,0,0-67.891-8.259,233.585,233.585,0,0,0-40.13,2.953c-14.411,2.322-28.669,4.859-42.758,8.9a298.839,298.839,0,0,0-65.136,27.542c-30.876,17.491-57.351,40.182-80.18,67.273-20.519,24.351-36.423,51.516-48.542,80.823a281.349,281.349,0,0,0-16.069,55.907,246.425,246.425,0,0,0-4.233,38.617c.108,2.891-.5,24.77-.392,26.439M427.195,777c1.481-19.28-13.779-35.209-37.65-34.668-18.421.418-35.032,14.191-34.548,34.51.51,21.429,14.057,35.216,36.13,35.655,19.411.385,37.308-12.816,36.068-35.5M315.941,742.4c-20.408-.7-35.652,16.231-35.021,36.6.465,14.979,12.6,28.865,28.04,32.692,15.337,3.8,31.554-4.306,37.026-14.591.7-1.32,2.658-2.837.07-4.131-3.877-1.938-7.869-3.644-11.752-5.571-1.727-.858-2.317.223-3.113,1.326-9.8,13.588-23.918,8.067-30.073-2.916-4.231-7.55-1.8-18.432,5.479-24.093,6.3-4.9,17.185-5.425,21.536.578,4.338,5.987,7.862,4.223,12.4,1.64a21.73,21.73,0,0,1,4.049-2.006c3.1-.982,2.973-2.465,1.436-4.944-6.6-10.656-16.51-14.626-30.082-14.586M256.182,133.216l1.013-.854c5.872,2.431,11.762,4.819,17.608,7.31,3.543,1.51,7.047,3.122,10.519,4.789,3.529,1.694,6.016-.768,8.787-2.071,1.442-.678.953-1.8.359-2.792-6.63-11.072-13.351-22.09-19.874-33.224-2.53-4.318-4.306-.341-6.267.368-2.419.873-2.04,2.121-.687,4.238,4.2,6.564,8.531,13.1,11.822,20.45-3.282.633-5.5-.947-7.864-1.916-7.193-2.956-14.337-6.03-21.555-8.923a6.837,6.837,0,0,0-7.666,1.747c-2.228,2.256.115,4.259,1.132,6,5.7,9.762,11.7,19.349,17.325,29.152,1.461,2.545,2.677,3.4,5.176,1.671,2.066-1.426,4.466-2.276,2.184-5.773-4.274-6.548-8.036-13.429-12.011-20.172m-61.81,66.22c-12.2-1.447-23.18-2.894-34.2-3.952-2.632-.253-3.677,2.545-5.056,4.52-1.694,2.427.712,2.975,1.633,3.863,5.923,5.705,11.761,11.544,18.129,16.721,2.872,2.335,5.662,4.8,8.457,7.21,3.225,2.775,4.749.691,6.732-1.3,2.861-2.872-.321-3.94-1.677-5.212-5.53-5.183-11.228-10.188-17.437-15.774a21.025,21.025,0,0,1,3.029-.27c9.225.918,18.527,1.411,27.637,3,4.869.851,7.127-1.479,8.926-4.72,1.767-3.183-1.984-3.627-3.487-5.043-7.389-6.964-15.012-13.685-22.262-20.787-3.074-3.01-5.527-4.233-8.872-.621-3.6,3.885,1.03,4.8,2.46,6.386,4.789,5.325,11.352,8.919,15.991,15.979m642.3,298.391c-10.612,5.66-19.794,10.954-29.345,15.468-4.07,1.923-2.44,5.428-3.559,8.065-.69,1.627,1.782,2.182,3.592,2.4,11.72,1.415,23.549,2.349,35.078,4.724,5.18,1.066,4.478-2.01,5.1-4.3,1.007-3.71-1.786-3.6-4.351-3.924-7.706-.974-15.5-1.542-23.9-3.765,10.284-5.471,19.546-10.749,29.14-15.333,3.872-1.849,2.566-5.181,3.286-7.687.78-2.714-2.813-1.6-4.162-1.986a105.015,105.015,0,0,0-14.208-2.58c-7-.969-14.029-1.779-21.052-2.6-3.393-.4-4.021,2.065-4.212,4.561-.214,2.783,1.675,3.154,4.019,3.444,7.846.97,15.659,2.213,24.571,3.51M83.287,384.558c3.228-1.571,4.873-2.425,6.562-3.185,8.192-3.686,16.336-7.489,24.621-10.951,3.713-1.551,3.369-4.633,3.581-7.5.172-2.322-2.443-1.838-3.456-2.069-11.336-2.583-22.855-4.421-34.09-7.359-5.109-1.336-5.015,2.136-5.589,4.528-.753,3.14,2.207,3.171,4.368,3.619,7.4,1.534,14.8,3.108,23.377,4.915-2.855,1.389-4.5,2.235-6.183,3-7.853,3.585-15.7,7.177-23.58,10.708-3.046,1.365-3.493,3.943-3.8,6.86s2.246,3.154,3.592,3.454c11.538,2.571,23.158,4.778,34.726,7.222,3.54.748,4.122-1.589,4.621-4,.619-2.983-1.016-3.625-3.752-4.094-7.781-1.336-15.479-3.15-25-5.152m608.431-194.4c5.251,5.7,5.251,5.7,10.71.22a21.821,21.821,0,0,1,2.827-2.764c1.318-.906,1.91-3.809,4.08-2.391,2.271,1.483,4.387,3.554,3.581,6.85-.743,3.036-1.181,6.216-2.41,9.047-2.554,5.885-.41,9.19,5.408,11.1.517-2.289,1.039-4.572,1.55-6.857a51.205,51.205,0,0,1,1.631-6.978c.583-1.541.354-4.016,3.94-2.971,6.844,1.994,12.442-.946,15.82-7.236,2.681-4.99,1.55-11.3-2.987-15.979-3.152-3.249-6.537-6.279-9.609-9.6-3.058-3.305-5.57-3.555-8.871-.065-8.635,9.128-17.935,17.628-25.669,27.625m-622.67,325.3c-.8,4.288.959,8.623,1.44,13.055.762,7.03,1.294,6.815,8.705,5.559,10.233-1.734,20.483-3.449,30.784-4.671,4.187-.5,5.436-1.7,3.8-5.653-.48-1.162-.335-2.571-.547-3.856-.939-5.672-1.328-11.507-4.168-16.68-4.9-8.934-15.791-11.457-26.375-8.571-8.153,2.224-14.762,12.169-13.643,20.816M429.674,86.4a21.883,21.883,0,0,1,1.9-1.315c5.328-2.909,7.563-7.152,5.761-16.209a10.189,10.189,0,0,0-10.653-8.37c-7.2.247-14.54.227-21.678,1.891-1.967.459-1.767,1.836-1.535,3.02,1.469,7.513,1.2,15.235,2.445,22.694.828,4.947.227,9.962,1.734,14.9,1.226,4.018,3.822,2.349,5.787,2.277,2.483-.091,2.893-2.405,2.141-4.268-1.265-3.135-.507-6.328-.876-9.466-.313-2.657.938-3.048,3.236-3.13,5.836-.209,7,4.891,9.4,8.272,5.321,7.518,5.134,7.65,13.794,4.4l-11.45-14.7M114.127,610.7c1.718.114,2.031,1.308,2.532,2.259,1.053,2,2.063,4.023,3.064,6.05,5.208,10.545,5.2,10.547-5.051,15.693a24.267,24.267,0,0,1-2.54,1.238c-2.8,1.015-2.507,2.649-1.275,4.824,1.138,2.01,1.6,4.113,4.873,2.435q16.068-8.237,32.4-15.952c3.7-1.756,2.323-3.958,1.342-6.484-1.284-3.305-3.136-1.576-4.921-.718-2.207,1.061-4.388,2.177-6.6,3.219-6.628,3.117-6.665,3.124-9.92-3.548-1.974-4.046-6.016-8.7-5.168-12.087.99-3.955,7.434-4.8,11.587-6.825,2.684-1.308,4.341-2.238,2.523-5.77-1.68-3.26-3.148-3.222-6.056-1.725-10.214,5.259-20.582,10.217-30.845,15.383-1.814.913-5.523.823-3.074,4.751,1.675,2.685,2.965,5.018,6.785,2.471,3.26-2.174,7.03-3.583,10.345-5.216M853.385,454.5c1.27-13.979-9.6-21.859-21.016-21.572-14.571.366-23.211,8.084-23.213,21.612,0,12.263,10,23.189,22.056,22.46,10.8-.653,23.54-6.7,22.174-22.5M750.533,244.9c13.24,1.44,23.783-12.257,23.557-23.433-.233-11.536-9.187-20.78-20.571-20.8-13.869-.02-24.891,9.6-24.838,21.683.049,11.316,10.927,22.539,21.852,22.546m-578.352-1.145c1.221-15.18-11.893-21.775-22.431-22.549-11.276-.828-23.042,11.318-22.8,22.608.228,10.715,12.35,22.577,23.118,22.62,12.552.05,22.149-9.792,22.115-22.68M823.873,302.12c-.423-.95-.795-1.81-1.186-2.66-3.031-6.593-6.117-13.161-9.077-19.786-1.335-2.987-2.921-3.58-6.046-2.067-10.68,5.169-21.486,10.078-32.3,14.955-2.678,1.207-2.446,2.715-1.424,4.906,3.211,6.885,6.437,13.77,9.362,20.778,1.155,2.765,2.38,2.9,4.911,1.835,2.769-1.164,3.26-2.472,1.913-5.106-2.048-4-3.477-8.352-5.761-12.2-2.624-4.423.33-5.258,3.311-6.722,3.418-1.678,5.73-1.97,7.214,2.481,1.329,3.986,3.777,7.592,5.221,11.551,1.222,3.35,2.949,2.527,5.144,1.443,2.112-1.042,3.043-1.685,1.331-4.447-2.523-4.072-3.885-8.851-5.9-13.253-1.532-3.34.278-4.347,3.027-5.063,2.3-.6,4.652-4.065,6.558.7,1.932,4.839,4.23,9.537,6.506,14.23.429.884.432,3.112,2.537,1.766,1.607-1.028,4.087-.908,4.668-3.344m-499.3-195.5c-1.6-1.588-.673-6.013-5.538-3.851-4.324,1.923-8.944,3.233-13.108,5.566-3.471,1.946-4.358-.764-5.246-2.961-.837-2.07-3.628-4.473.693-6.26,4.976-2.059,9.772-4.548,14.712-6.7,3.138-1.366.962-3.251.56-4.829-.451-1.77-1.628-2.966-3.712-2.026q-11.546,5.2-23.069,10.459c-1.337.613-2.175.835-1.1,3.115,5.388,11.384,10.3,23,15.265,34.577.908,2.115,1.7,2.9,4.121,1.8,6.747-3.082,13.592-5.959,20.471-8.738,2.551-1.03,4.262-2.034,2.919-5.2-1.326-3.121-3.172-2.8-5.771-1.593-4.3,1.994-8.741,3.7-13.171,5.394-4.986,1.913-4.3-2.854-5.4-5.048-.844-1.69-2.989-4.192,1.633-5.223,4.271-.952,8.259-3.324,12.241-5.33,1.3-.654,3.34-.888,3.494-3.154M781.484,595.038c14.507.3,28.989-.026,43.471-.685,2.228-.1,3.827-.835,3.982-3.011.173-2.44,3.274-4.923.79-7.195-10.113-9.25-20.413-18.3-30.718-27.336-.953-.837-2.733-2.427-3.623-.115-1.107,2.876-4.544,6.065.715,8.815,1.991,1.041,4.059,3.273,2.393,6.1-2.972,5.05-2.087,12.124-8.161,15.522a.871.871,0,0,1-.558.023c-6.5-1.437-7.756,2.74-8.291,7.877M550.824,110.763a31.632,31.632,0,0,0-.278-3.373c-2.174-11.617-4.812-23.171-6.346-34.871-.522-3.978-2.25-4.982-5.182-5.52s-5.4-1.341-7.716,2.611c-6.176,10.524-13.386,20.437-19.864,30.793-.653,1.044-4.258,2.9-.884,4.8,2.52,1.412,6.107,3.246,7.923-.183,2.632-4.97,5.7-6.189,10.81-4.138s13.042-.708,13.224,9.139c.048,2.582,3.978,3.361,6.923,3.372,2.344.008,1.44-1.473,1.39-2.626m-414.86,198.5c.525-2.7-.51-5.935-3.493-8.526-5.495-4.772-14.237-3.482-19.39,2.973-2,2.5-3.762,5.19-5.773,7.68-1.764,2.185-4.169,3.948-6.762,1.9-2.365-1.866-2.884-4.763-1.109-7.585,1.879-2.987,3.282-6.474,6.781-7.99,3.576-1.55,1.468-3.31.568-5.28-1.24-2.716-2.737-2.411-4.88-1.054-5.016,3.177-8.049,7.958-9.914,13.255a13.986,13.986,0,0,0,6.785,17.433c4.934,2.591,10.269.637,15.394-5.675,2.138-2.632,4.124-5.4,6.367-7.934,1.68-1.9,3.748-3.406,6.411-1.629,2.387,1.593,2.605,3.95,1.984,6.523-1.2,4.958-3.68,9.218-8.325,11.386-4.261,1.989-1.6,4.021-.65,6.113,1.416,3.1,3.338,1.372,5.01.317,7.624-4.811,11.021-11.886,11-21.909M109.44,408.65c-7.555-1.174-7.784-1.164-7.449,6.042.169,3.647-1.254,6.991-1.177,10.516.067,3.084-1.078,5.087-4.186,4.3-2.711-.684-7.044,1-7.287-4.471-.228-5.114,1.914-9.913,1.327-15.075-.294-2.585-1.249-3.058-3.489-3.042-2.187.016-3.677.3-3.435,3.017.435,4.88-1.372,9.548-1.2,14.5.2,5.914-4.724,2.136-7.224,2.805-2.714.726-4.9-1.217-3.858-3.808,1.813-4.529.145-9.308,1.817-13.807.67-1.8,1.317-4.593-2.472-4.949-3.322-.312-5.3,1.09-5.066,4.166.561,7.37-1.669,14.51-1.333,21.87.15,3.274,1.718,4.523,4.306,4.495,10.866-.115,21.562,1.835,32.367,2.441,4.9.275,6.325-.933,6.778-6.256.644-7.573.134-15.241,1.582-22.748M706.032,151.823a7.941,7.941,0,0,0-1.232-5.61c-4.767-6.751-11.952-10.648-18.4-15.395-1.471-1.082-2.759-.212-3.8,1.172-7.2,9.569-14.367,19.162-21.713,28.617-2.094,2.694-1.5,4.508.815,6.46,2.741,2.31,4.461,1.047,6.215-1.364,2.208-3.034,4.221-7.684,7.1-8.373,3.428-.821,6.343,3.839,9.561,6,3.989,2.681,7.857,4.732,12.793,1.989,5.289-2.938,9.1-6.611,8.666-13.5M377.566,66.912c-4.342.947-10.47,2.25-16.581,3.632-3.223.729-3.317,3.359-2.784,5.728,2.5,11.095,5.431,22.1,7.667,33.24.666,3.32,1.983,4.291,4.8,3.767,2.915-.543,3.621-2.633,3.294-5.433-.427-3.645-3.89-7.5-1.724-10.614,2.2-3.156,7.127-2.169,10.81-3.175,7.127-1.946,11.125-8.345,10.144-15.974-.9-6.964-6.028-11.126-15.623-11.171m111.46,26.253c-.865-1.1-1.383-1.487-1.521-1.978-2.739-9.774-5.678-19.5-8.039-29.369-1.212-5.069-4.819-2.7-7.141-2.62-3.9.13-1.43,2.874-.962,4.47,3.35,11.42,6.976,22.762,10.091,34.244.844,3.107,1.578,5.117,5.174,5.306,3.515.184,6.505.932,8.5-3.59,4.767-10.79,10.294-21.242,15.279-31.941.67-1.437,4.056-3.626.1-5.242-3.052-1.247-6.063-2.76-8.13,2.029-4.118,9.542-8.745,18.864-13.356,28.692M792.755,649.379c1.4-.357,2.839-.643,4.224-1.089,15.679-5.052,18.955-27.73,7.414-37.072a25.311,25.311,0,0,0-17.557-5.992c-13.6.43-24.153,15.2-19.534,27.885.628,1.727.821,4.871,3.665,3.43,1.836-.93,5.91-1.3,3.455-5.933-1.24-2.337-.858-6.11,0-8.86,1.676-5.4,8.826-9.039,15.154-8.475,5.579.5,12.723,6.266,13.86,11.193,1.39,6.023-.795,12.226-6.554,14.993-4.85,2.33-5.827,5.262-4.122,9.919m21.666-327.291c-1.733.314-4.659-.5-7.69.487A18.382,18.382,0,0,0,793.6,337.659c-1.583,9.279-.583,18.254,8.526,24.075,2.177,1.391,4.951,3.62,6.68,1.169,1.492-2.113,1.609-5.355-2.058-7.6-7.685-4.709-8.879-13.426-3.38-20.179,5.189-6.373,15.931-7.617,21.686-2.379,4.879,4.443,7.8,8.309,3.352,16.666-2.258,4.243,1.409,5.17,3.069,6.42,2.471,1.86,3.069-1.353,3.865-2.846,7.018-13.153-2.595-33.037-20.918-30.9M147.443,638.529c.586,4.5,2.165,7.506,7.094,7.778,2.042.113,3.686,1.806,4.949,3.509,3.585,4.831,3.445,13.249-.26,17.878-3.746,4.68-12.54,8.243-16.422,6.192-6.835-3.611-11.989-7.672-10.078-16.117,1.039-4.593-2.2-4.685-4.284-5.434-2.705-.972-2.165,2.006-3,3.462-1.468,2.557-1.2,5.215-.637,7.654a23.24,23.24,0,0,0,31.947,16.372c10.476-4.378,15.089-14.938,12.064-27.614-2.172-9.1-10.511-14.555-21.373-13.68M602.867,94.444c-1.289-3.024-2-6.25-4.5-8.82-5.759-5.931-17.028-8.259-25.527-5-7.835,3.007-12.547,10.885-13.12,20.142-1.1,17.842,17.193,27.2,30.414,21.067,1.691-.785,5.3-1.258,3.906-4.1-1.086-2.216-3.03-5.479-7.042-2.81-9.564,6.363-21-5.662-19.324-15.055,1.051-5.909,6.161-12.4,11.75-13.584,4.325-.92,12.447,1.018,14.223,5.647,2.054,5.353,5.1,4.874,9.215,2.514m20.789,18.691c-.916-6.256-1.744-12.144-2.65-18.02-.556-3.6-3.738-4.559-6.259-4.15-3.239.525-1.781,3.593-1,5.385,1.124,2.578.232,5.173.8,7.771,1.86,8.53,3.522,17.15-2.372,25.043a31.548,31.548,0,0,0-2.455,4.983c-.38.764-1.1,1.283-.16,2.333,2.762,3.075,7.336,2.827,8.66-1.059,3.177-9.326,9.423-15.331,18.11-19.654,4.518-2.248,9.421-4.347,13.03-8.291-11.044-8.488-16.786,4.742-25.7,5.659M787.665,248.183a3.525,3.525,0,0,1-2.2,3.6c-8.2,4.774-16.132,10.037-24.494,14.5-3.682,1.963-2.561,3.613-1.341,6.114,1.473,3.019,3.215,2.876,5.763,1.254,6.162-3.92,12.475-7.6,18.694-11.431,8.264-5.094,8.252-5.117,13.851,2.945a7.342,7.342,0,0,0,.889,1.373c2.06,1.832,3.328-.449,4.9-1.037,1.4-.522,2.113-1.268,1.094-2.94-5.054-8.293-9.979-16.665-15.01-24.972-1.86-3.072-4.132-1.332-6.223-.277-2.856,1.441-.826,3.013.029,4.445,1.406,2.357,2.92,4.649,4.047,6.43m6.354,414.393c-.735-1.384-2.208-2.06-3.543-3.016-1.729-1.238-2.828-.537-3.822.712a21.982,21.982,0,0,0-3.125,4.607c-1.644,3.746-3.494,3.369-6.438,1.224-7.117-5.184-14.517-9.978-21.718-15.049-2.587-1.822-4.391-2.144-6.555.825-2.185,3-.662,4.126,1.582,5.657,5.759,3.929,11.4,8.029,17.12,12.016,2.766,1.929,7.127,3.22,8.02,5.765,1.124,3.2-2.843,6.077-5.024,8.75-2.26,2.77.451,3.011,1.615,4.093,1.327,1.233,2.123,2.389,4.018-.05,5.857-7.541,11.142-15.468,16.6-23.283.429-.616.747-1.31,1.275-2.251m47.05-297.551c-4.384.118-5.562,1.469-3.283,7.853,2.113,5.92-.969,6.212-4.944,6.9-8.576,1.478-17.13,3.089-25.709,4.55-2.32.395-4.617,1.273-3.258,3.776.856,1.577-.805,6.094,4.677,4.391,6.816-2.117,14.26-2.137,21.207-3.934,3.248-.84,7.257-2.077,9.614-1.441,2.757.744,2.247,5.835,2.721,9.155.415,2.9,2.63,3.2,4.631,2.549,1.2-.393,3.377-.345,2.585-3.636-2.169-9-3.569-18.209-4.892-27.39-.4-2.789-1.726-2.9-3.349-2.77M239.98,177.369c-2.1-1.267-2.5-4.974-6.195-3.362-3.383,1.475-5.629,4.182-8.051,6.79-2.8,3.02-5.319,3.753-8.459-.328-5.478-7.12-11.86-13.545-17.346-20.661-3.044-3.949-4.8-.524-6.677.565-2.368,1.378-1.336,3.369.041,5.237,1.88,2.551,4.459,4.355,6.42,6.931,5.391,7.084,11.5,13.626,17.4,20.319,1.216,1.38,2.469,2.761,4.636.8,5.283-4.772,10.774-9.315,16.155-13.98a26.192,26.192,0,0,0,2.08-2.314m-130.352,361.8c2.355,4.254,2.539,8.713,4.136,12.626,1.879,4.6-.232,5.942-3.976,6.928-8.754,2.306-17.458,4.81-26.239,7-4.1,1.024-2.421,3.409-2.035,5.857.475,3.013,1.753,2.9,4.254,2.151q17.052-5.119,34.243-9.763c3.387-.913,4.036-2.606,3.1-5.679-1.5-4.949-2.894-9.932-4.224-14.93-1.79-6.723-1.746-6.734-9.262-4.192M227.346,132.881c-1.84.15-5.248,5.553-4.248,6.918,7.424,10.125,14.924,20.2,22.368,30.307,1.868,2.536,3.571,1.372,5.375-.034,1.885-1.47,3.2-2.728,1.2-5.351-7.506-9.851-14.815-19.852-22.158-29.825-.689-.936-1.29-1.842-2.535-2.014M91.916,595.312a3.451,3.451,0,0,0,.554-.112c12.143-4.56,24.32-9.034,36.4-13.744,3.728-1.453-.212-3.731.082-5.7.28-1.872-1.084-2.516-2.994-1.8q-17.847,6.7-35.73,13.3c-2.435.9-2.47,2.979-1.742,4.586.611,1.351.594,4.052,3.427,3.462M842.172,419.184a11.218,11.218,0,0,0,7.389-.92c2.945-1.284,1.235-3.9,1.466-5.891.283-2.443-1.769-1.987-3.157-1.828-12.2,1.409-24.372,3.075-36.595,4.234-4.086.388-3.293,2.912-3.161,5.146.194,3.286,2.667,3.025,5.028,2.739,9.767-1.182,19.536-2.344,29.03-3.48M97.393,339.111c-.125-3.393-6.143-8.067-10.311-8.118-2.193-.027-4.128.224-5.125,2.54a4.257,4.257,0,0,0,1,5.142c1.7,1.622,3.813,1.989,5.605.48,2.335-1.966,3.542-1.172,4.711,1.14.44.87.837,2.327,2.42,1.424,1-.57,1.928-1.223,1.7-2.609" transform="translate(-2.135 -0.021)"></path>
        <path id="Trazado_12708" data-name="Trazado 12708" class="cls-3" d="M998.225,1088.228l1.162-.722c-.234.488-.449,1.006-1.162.722" transform="translate(-364.569 -397.176)"></path>
        <path id="Trazado_12709" data-name="Trazado 12709" class="cls-3" d="M439.264,1087.486l1.059.655-1.059-.655" transform="translate(-160.427 -397.169)"></path>
        <path id="Trazado_12710" data-name="Trazado 12710" class="cls-3" d="M669.351,631.278q0-37.938.008-75.877c.008-9.073,1.895-10.97,10.935-10.993q20.952-.055,41.9,0c8.973.024,12.066,3.108,12.07,12.131q.034,75.311,0,150.622c0,8.264-3.4,11.636-11.609,11.644q-22.084.022-44.167.007c-5.915,0-9.055-3.066-9.106-9.392-.1-12.834-.035-25.67-.036-38.5q0-19.819,0-39.638" transform="translate(-244.451 -198.817)"></path>
        <path id="Trazado_12711" data-name="Trazado 12711" class="cls-3" d="M828.275,679.674q0-26.881.011-53.763c.015-7.87,2.173-10.062,9.862-10.079q22.07-.049,44.142,0c7.511.017,10.886,3.366,10.893,10.984q.056,53.763,0,107.526c-.008,7.678-2.918,10.518-10.652,10.542q-21.788.064-43.577,0c-7.966-.025-10.656-2.776-10.671-10.88q-.048-27.165-.01-54.329" transform="translate(-302.497 -224.903)"></path>
        <path id="Trazado_12712" data-name="Trazado 12712" class="cls-3" d="M510.435,744.584c0-7.917-.05-15.835.015-23.752.057-6.974,2.654-9.984,9.716-10.1q22.05-.362,44.108-.005c8.3.138,10.919,3.2,10.925,11.408q.013,22.9,0,45.807c-.013,8.779-2.711,11.536-11.269,11.548-14.515.019-29.03.041-43.545-.012-6.9-.025-9.858-3.008-9.927-10.012-.081-8.293-.019-16.588-.019-24.882" transform="translate(-186.412 -259.504)"></path>
        <path id="Trazado_12713" data-name="Trazado 12713" class="cls-3" d="M858.351,448.127c17.053-2.111,34.619,13.278,34.92,33.853.293,20.067-16.84,35.959-36.663,35.406-14.392-.4-34.253-15.019-33.63-35.5.586-19.255,15.287-33.763,35.373-33.763" transform="translate(-300.561 -163.593)"></path>
        <path id="Trazado_12714" data-name="Trazado 12714" class="cls-3" d="M539.859,542.854c20.655-.4,35.027,14.578,35.677,34.446.616,18.8-17.007,36.7-35.659,35.6-18.4-1.086-34.168-15.106-34.465-35.553-.265-18.192,15.082-35.371,34.447-34.49" transform="translate(-184.584 -198.248)"></path>
        <path id="Trazado_12715" data-name="Trazado 12715" class="cls-3" d="M773.42,898.076c4.94-.852,10.163.871,15.057,3.849,1.991,1.211,3.258,2.747.868,4.763-1.519,1.282-1.778,5.222-5.351,2.335-4.6-3.714-10.213-3.1-15.614-2.994-2.359.048-3.741,1.7-4.31,3.845-.626,2.362.592,3.913,2.6,5.067,4.235,2.432,8.987,3.339,13.6,4.614,8.093,2.239,11.805,6.2,12.041,13.3.225,6.779-3.675,11-11.342,14.106-8.905,3.6-16.567,1.218-24.114-3.413-2.821-1.73-3.981-3.321-1.487-6.654,2.234-2.987,3.357-2.509,6.123-.667,5.4,3.6,11.141,6.865,18.019,2.756,2.384-1.424,3.879-2.964,3.592-5.73-.268-2.583-2.109-3.751-4.417-4.53-5.054-1.706-10.417-2.43-15.239-4.88-7.571-3.847-9.957-8.1-8.378-15.115,1.421-6.311,7.394-10.659,14.638-10.657h3.719" transform="translate(-275.372 -327.913)"></path>
        <path id="Trazado_12716" data-name="Trazado 12716" class="cls-3" d="M501.861,920.7c5.125-6.2,17.693-22.271,17.693-22.271h11.519l-18.294,22.656,20.74,27.492H524s-9.9-13.543-13.33-17.774c-1.019-1.259-3.388-3.834-5.011-3.233a5.675,5.675,0,0,0-3.763,5.194c-.053,3.4-.113,15.178-.113,15.178l-9.044-.216-.029-50.3,9.212.242s-.057,15.965-.057,23.027" transform="translate(-179.945 -327.756)"></path>
        <path id="Trazado_12717" data-name="Trazado 12717" class="cls-3" d="M690,969.183s.211-7.287.237-9.717c.146-13.343.359-40.029.359-40.029s13.965-.675,21-.126c7.132.557,10.524,4.733,12.1,10.955,2.057,8.113,1.876,15.765-5.075,21.93-5.5,4.874-13.08,5.059-19.2.168a4.776,4.776,0,0,0-.722-.553,4.889,4.889,0,0,1-.446-.4v17.774Zm16.674-42.947c-6.846-.005-9.2,2.431-9.212,9.513-.009,9.552,2.566,13.106,9.533,13.15,5.414.034,10.294-5.452,9.6-12-.718-6.741-2.65-11.194-9.918-10.662" transform="translate(-252 -335.67)"></path>
        <path id="Trazado_12718" data-name="Trazado 12718" class="cls-3" d="M845.661,935.141c-.14-3.658,1.8-7.287-1.732-8.491-4-1.363-8.587-1.771-12.541.408-2.381,1.312-3.851,2.572-5.479-.821-1.65-3.441.672-4.16,2.861-5.362,6.1-3.349,12.567-2.986,18.8-1.172,7.083,2.06,6.646,8.78,7.174,14.353.5,5.229.139,10.542.1,15.818-.04,5.2-3.164,7.7-7.4,5.08-2.678-1.657-4.242-.966-6.522-.2-10.428,3.5-18.585-2.443-17.863-12.917.329-4.782,4.7-9.117,9.48-9.077,4.271.036,8.72-.892,13.12,2.381m-7.211,3.308c-3.881-.529-7.023.483-7.461,5.177-.316,3.392,3.865,7.946,7.079,7.1,3.359-.879,7.892-.675,7.9-6.688.007-5.909-3.37-5.747-7.518-5.593" transform="translate(-300.58 -335.394)"></path>
        <path id="Trazado_12719" data-name="Trazado 12719" class="cls-3" d="M655,950.838c-15.594,11.29-28.54,4.312-33.026-8.947-3.235-9.56,4.262-25.523,19.465-22.69,10.953,2.04,15.547,7.125,16.182,17.8.181,3.034-1.679,2.755-3.589,2.753q-11.578-.012-23.2,0c1.159,8.427,6.99,12,14.787,8.632,4.155-1.8,7.3-2.855,9.562,2.121,0-.007-.186.332-.186.332m-5.49-16.747c-2.054-7.146-3.969-8.908-9.2-9.089-4.463-.154-7.506,1.883-9.333,5.848-.817,1.772-1.034,3.279,1.746,3.255,5.546-.048,11.092-.014,16.787-.014" transform="translate(-226.885 -335.587)"></path>
        <path id="Trazado_12720" data-name="Trazado 12720" class="cls-3" d="M941.948,939.655c-3.4,0-6.8.022-10.2-.006-3.7-.031-3.9,1.626-1.859,4.068,5.37,6.41,8.923,8.108,16.932,3.611,2.9-1.626,4.142-1.157,5.67,1.412,2.02,3.4-1.466,3.473-2.712,4.185-7.98,4.558-19.537,4.462-26.325-4.415-6.078-7.948-4.836-17.91,2.546-25.292,5.194-5.193,13.511-5.65,20.185-3.207,5.3,1.939,9.848,10.36,9.857,16.522,0,2.6-1,3.227-3.33,3.147-3.585-.124-7.177-.033-10.765-.025m-13.321-5.663c5.766,0,11.012-.117,16.25.04,3.708.111,3.669-1.6,2.327-4.109-2.247-4.2-6.239-5.243-10.434-4.864-4.651.42-7.142,3.553-8.144,8.934" transform="translate(-335.847 -335.483)"></path>
        <path id="Trazado_12721" data-name="Trazado 12721" class="cls-3" d="M579,939.435c-3.4,0-6.8.089-10.188-.027-3.03-.1-2.982,1.252-2.019,3.468,2.808,6.467,9.173,8.3,16.893,4.383,2.489-1.263,3.988-2.1,5.74.96,2.01,3.506-1.048,3.9-2.691,4.812-7.3,4.057-15.035,4.834-21.853-.342-5.681-4.312-8.5-10.615-7.862-18.157.7-8.328,9.465-16.676,17.7-16.555,10.953.161,17.722,7.1,17.568,17.491-.049,3.336-1.139,4.242-4.235,4.008-3-.227-6.035-.049-9.054-.043m-3.5-5.662c2.066,0,4.144-.142,6.2.029,4.775.395,3.875-2.06,2.343-4.65-3.386-5.725-12.223-6.14-16.3-.8-1.023,1.341-2.236,2.922-1.393,4.6.8,1.6,2.686.663,4.08.783,1.678.144,3.378.034,5.069.033" transform="translate(-203.4 -335.261)"></path>
        <path id="Trazado_12722" data-name="Trazado 12722" class="cls-3" d="M896.085,919.221c-.077,7.723-.257,15.447-.185,23.168.032,3.384-.731,5.3-4.67,5.276-4.226-.027-3.1-2.919-3.135-5.1q-.145-10.177-.008-20.357c.034-2.558-.187-4.525-3.535-4.113-2.62.323-2.5-1.572-2.453-3.314.044-1.635-.4-3.715,2.326-3.42,2.869.31,3.225-1.094,3.418-3.612.652-8.5,9.27-13.24,17.117-9.659,1.553.709,2.481,1.756,1.877,3.54-.764,2.251-2.339,3.719-4.7,2.689-3.347-1.46-5.061.395-6.109,2.86-.585,1.374-1.523,4.06,1.745,4.085,2.814.022,5.062-.209,4.833,3.968-.265,4.833-3.967,1.994-5.8,3.168-.637-.074-.948.138-.725.823" transform="translate(-322.152 -327.557)"></path>
        <path id="Trazado_12723" data-name="Trazado 12723" class="cls-3" d="M464.719,937.58c0-4.714.13-9.435-.048-14.142-.11-2.907.844-4,3.847-3.937,2.688.055,4.117.428,4.053,3.65-.186,9.426-.119,18.858-.035,28.287.027,3.071-1.155,4.322-4.308,4.489-3.993.211-3.526-2.3-3.517-4.768.015-4.526,0-9.053.008-13.579" transform="translate(-169.703 -335.817)"></path>
        <path id="Trazado_12724" data-name="Trazado 12724" class="cls-3" d="M674.429,969.041s.184-.34.186-.332-.186.332-.186.332" transform="translate(-246.313 -353.789)"></path>
        <path id="Trazado_12725" data-name="Trazado 12725" class="cls-3" d="M931.291,1225.936l7.4-22.019,6.093,21.895Z" transform="translate(-340.124 -439.692)"></path>
        <path id="Trazado_12726" data-name="Trazado 12726" class="cls-3" d="M835.334,1209.237c-2.546-.737-6.573,1.487-7.63-1.4-1.213-3.312-.389-7.38-.378-11.121a1.433,1.433,0,0,1,1.382-1.505c5.219-.09,10.519-1.06,15.6.742,3.5,1.241,4.613,4.067,4.153,7.634-.439,3.4-2.875,4.745-5.763,5.251a58.606,58.606,0,0,1-7.367.4" transform="translate(-302.05 -436.388)"></path>
        <path id="Trazado_12727" data-name="Trazado 12727" class="cls-3" d="M726.773,1209.518c-1.7,0-3.394-.067-5.086.015-2.853.138-3.912-1.129-4.117-4-.745-10.467-.837-10.472,9.827-10.427a31.97,31.97,0,0,1,5.626.29c3.922.722,6.406,2.636,6.205,7.232s-3.289,5.966-6.822,6.811c-1.782.426-3.75.074-5.634.081" transform="translate(-261.964 -436.471)"></path>
        <path id="Trazado_12728" data-name="Trazado 12728" class="cls-3" d="M1139.731,279.548c-.044,4.588-3.277,5.855-6.97,6.388-1.62.234-10.669-7.834-10.789-9.3-.074-.9,7.356-8.712,8.359-8.785,2.294-.166,9.442,8.731,9.4,11.7" transform="translate(-409.763 -97.823)"></path>
        <path id="Trazado_12729" data-name="Trazado 12729" class="cls-3" d="M121.223,814.8c-6.189,1.056-3.506-4.091-4.374-6.4-2.128-5.663-.543-10.553,3.918-14.543,5.14-4.6,11.376-3.859,17.026-2.27s6.708,7.277,7.878,12.463c1.187,5.26-.253,7.233-5.994,7.486-6.187.273-12.305,2.111-18.454,3.266" transform="translate(-42.334 -288.653)"></path>
        <path id="Trazado_12730" data-name="Trazado 12730" class="cls-3" d="M654.489,107.216c3.634.354,8.987-1.643,8.868,6.034-.056,3.661-1.847,5.092-4.544,6.165-1.353.538-2.947.431-4.395.773-6.088,1.44-7.165.781-8.156-5.146-1.181-7.063-.314-7.946,8.227-7.827" transform="translate(-235.872 -39.154)"></path>
        <path id="Trazado_12731" data-name="Trazado 12731" class="cls-3" d="M1297.453,694.567c10.158,0,15.2,4.666,15.23,14.094.028,8.142-5.582,12.6-14.759,13.263-7.614.554-15.849-7.365-15.792-14.278.052-6.276,6.378-14.56,15.32-13.079" transform="translate(-468.257 -253.604)"></path>
        <path id="Trazado_12732" data-name="Trazado 12732" class="cls-3" d="M1186.494,340.782c-.063,8.082-8.492,16.982-16.375,16.515-6.974-.413-13.409-8.118-13.146-14.17.343-7.9,8.663-16.3,16.622-16.222,7.494.07,12.961,5.952,12.9,13.877" transform="translate(-422.544 -119.391)"></path>
        <path id="Trazado_12733" data-name="Trazado 12733" class="cls-3" d="M239.659,376.059c-1.071,8.756-6.781,13.954-14.039,14.041-7.523.09-16.628-8.726-16.662-15.729-.032-6.836,6.887-14,13.737-13.746,8.368.307,16.145,5.914,16.964,15.433" transform="translate(-76.315 -131.704)"></path>
        <path id="Trazado_12734" data-name="Trazado 12734" class="cls-3" d="M121.368,728.516c0,2.449.959,6.267-.192,7.073-2.719,1.9-6.539.606-9.9.787a2.764,2.764,0,0,1-1.957-.784c-2.179-2.428-.128-14.047,2.683-15.625,5.283-2.963,9.225.7,9.369,8.548" transform="translate(-39.59 -262.571)"></path>
        <path id="Trazado_12735" data-name="Trazado 12735" class="cls-3" d="M1258.871,918.1c3.65-14.817,3.65-14.817,14.322-5.508.7.614,1.419,1.221,2.093,1.869.787.758,1.909,1.471,1.433,2.765-.519,1.41-1.9.832-2.907.845-4.85.065-9.7.029-14.94.029" transform="translate(-459.761 -330.954)"></path>
        <path id="Trazado_12736" data-name="Trazado 12736" class="cls-3" d="M836.484,120.9c2.589,6.215,2.519,12.158,3.432,17.985-.095.058-.39.4-.686.4-4.271,0-9.741.281-11.763-3.028-1.411-2.311,3.214-6.171,4.867-9.5.905-1.821,2.357-3.369,4.15-5.856" transform="translate(-302.109 -44.156)"></path>
        <path id="Trazado_12737" data-name="Trazado 12737" class="cls-3" d="M1086.77,232.676a6.458,6.458,0,0,1-9.88,5.319c-.635-.4-1.256-.828-1.867-1.267-7.253-5.216-7.346-8.283-.433-14.123.425-.36.832-.926,1.313-1.007,2.426-.406,10.989,8.385,10.867,11.078" transform="translate(-390.597 -80.927)"></path>
        <path id="Trazado_12738" data-name="Trazado 12738" class="cls-3" d="M593.206,122.788c.116,3.3-.908,5.22-3.181,6.286a21.121,21.121,0,0,1-4.192,1.377c-2.589.6-6.168,2.695-7.627.86-2.008-2.525-2.225-6.479-3.175-9.831-.1-.338-.094-.962.1-1.087,4.234-2.744,9.015-2.722,13.762-2.422,3.323.209,4.1,2.8,4.313,4.817" transform="translate(-209.989 -43.036)"></path>
        <path id="Trazado_12739" data-name="Trazado 12739" class="cls-3" d="M621.775,1213.372A18.369,18.369,0,1,1,603.406,1195a18.369,18.369,0,0,1,18.369,18.369" transform="translate(-213.666 -436.436)"></path>
        <path id="Trazado_12740" data-name="Trazado 12740" class="cls-3" d="M473.628,902.46a5.511,5.511,0,1,1-5.511-5.511,5.511,5.511,0,0,1,5.511,5.511" transform="translate(-168.952 -327.581)"></path>
      </g>
    </g>
  </g>
</svg>
